<?xml version="1.0" encoding="UTF-8" standalone="no"?>
<!DOCTYPE svg PUBLIC "-//W3C//DTD SVG 1.1//EN"
 "http://www.w3.org/Graphics/SVG/1.1/DTD/svg11.dtd">
<!-- Generated by graphviz version 12.2.1 (20241206.2353)
 -->
<!-- Title: G Pages: 1 -->
<svg width="828pt" height="104pt"
 viewBox="0.00 0.00 828.00 104.10" xmlns="http://www.w3.org/2000/svg" xmlns:xlink="http://www.w3.org/1999/xlink">
<g id="graph0" class="graph" transform="scale(1 1) rotate(0) translate(4 100.1)">
<title>G</title>
<polygon fill="white" stroke="none" points="-4,4 -4,-100.1 824,-100.1 824,4 -4,4"/>
<g id="clust1" class="cluster">
<title>cluster_legend</title>
<polygon fill="none" stroke="black" points="8,-8 8,-88.1 812,-88.1 812,-8 8,-8"/>
<text text-anchor="middle" x="410" y="-70.8" font-family="Times,serif" font-size="14.00">Legend</text>
</g>
<!-- security_objective -->
<g id="node1" class="node">
<title>security_objective</title>
<ellipse fill="#bae9ff" stroke="#2bbcff" cx="134" cy="-35.8" rx="118.09" ry="19.8"/>
<text text-anchor="start" x="98.38" y="-37.2" font-family="Arial" font-weight="bold" font-size="8.00">Security Objective</text>
<text text-anchor="start" x="60.5" y="-29.2" font-family="Arial" font-size="8.00"> &#160;&#160;&#160;&#160;Description of the security objective &#160;&#160;&#160;&#160;</text>
</g>
<!-- threat -->
<g id="node2" class="node">
<title>threat</title>
<polygon fill="#f8cecc" stroke="#b85450" points="436,-53.8 270,-53.8 270,-17.8 436,-17.8 436,-53.8"/>
<text text-anchor="start" x="287.5" y="-40.95" font-family="Arial" font-weight="bold" font-size="8.00">THREAT ATTACK</text>
<text text-anchor="start" x="355.75" y="-40.95" font-family="Arial" font-size="8.00"> </text>
<text text-anchor="start" x="280" y="-26.2" font-family="Arial" font-size="8.00">Description of the threat</text>
</g>
<!-- countermeasure_implemented -->
<g id="node3" class="node">
<title>countermeasure_implemented</title>
<polygon fill="#d5e8d4" stroke="#82b366" points="620,-53.8 454,-53.8 454,-17.8 620,-17.8 620,-53.8"/>
<text text-anchor="start" x="464" y="-41.2" font-family="Arial" font-weight="bold" font-size="8.00">Implemented Countermeasure (ID)</text>
<text text-anchor="start" x="469.62" y="-25.2" font-family="Arial" font-size="8.00">Description of the countermeasure</text>
</g>
<!-- countermeasure_planned -->
<g id="node4" class="node">
<title>countermeasure_planned</title>
<polygon fill="#fff2cc" stroke="#d6b656" points="804,-53.8 638,-53.8 638,-17.8 804,-17.8 804,-53.8"/>
<text text-anchor="start" x="651.38" y="-41.2" font-family="Arial" font-weight="bold" font-size="8.00">Planned Countermeasure (ID)</text>
<text text-anchor="start" x="648" y="-25.2" font-family="Arial" font-size="8.00">Description of the countermeasure</text>
</g>
</g>
</svg>
